<?xml version="1.0" encoding="utf-8"?>
<!-- Generator: Adobe Illustrator 19.1.0, SVG Export Plug-In . SVG Version: 6.00 Build 0)  -->
<svg version="1.1" id="Layer_1" xmlns="http://www.w3.org/2000/svg" xmlns:xlink="http://www.w3.org/1999/xlink" x="0px" y="0px"
	 width="550px" height="340px" viewBox="0 0 550 340" style="enable-background:new 0 0 550 340;" xml:space="preserve">
<style type="text/css">
	.st0{fill:#273D7C;}
	.st1{fill:#F4AB1D;}
	.st2{fill:#EE8022;}
	.st3{fill:#DF5426;}
	.st4{fill:#589241;}
	.st5{fill:#80C342;}
	.st6{fill:#379DD7;}
	.st7{fill:#356FB4;}
</style>
<g>
	<g>
		<rect x="0.4" y="201.7" class="st0" width="26.1" height="135.7"/>
		<path class="st0" d="M48.9,237h25.6v10.3c5.8-4.8,11.1-8.2,15.8-10c4.7-1.9,9.5-2.8,14.5-2.8c10.1,0,18.7,3.5,25.8,10.4
			c5.9,5.9,8.9,14.6,8.9,26.2v66.3h-25.3v-44c0-12-0.5-19.9-1.6-23.9c-1.1-3.9-3-6.9-5.7-9c-2.7-2.1-6.1-3.1-10.1-3.1
			c-5.2,0-9.6,1.7-13.3,5.1c-3.7,3.4-6.3,8.1-7.7,14.1c-0.8,3.1-1.1,9.9-1.1,20.4v40.3H48.9V237z"/>
		<path class="st0" d="M161.7,237h25.6v10.3c5.8-4.8,11.1-8.2,15.8-10c4.7-1.9,9.5-2.8,14.5-2.8c10.1,0,18.7,3.5,25.8,10.4
			c5.9,5.9,8.9,14.6,8.9,26.2v66.3h-25.3v-44c0-12-0.5-19.9-1.6-23.9c-1.1-3.9-3-6.9-5.7-9c-2.7-2.1-6.1-3.1-10.1-3.1
			c-5.2,0-9.6,1.7-13.3,5.1c-3.7,3.4-6.3,8.1-7.7,14.1c-0.7,3.1-1.1,9.9-1.1,20.4v40.3h-25.6V237z"/>
		<path class="st0" d="M287.5,195.7c4.5,0,8.3,1.6,11.6,4.8c3.2,3.2,4.8,7.1,4.8,11.6c0,4.5-1.6,8.3-4.8,11.5
			c-3.2,3.2-7,4.8-11.4,4.8c-4.6,0-8.4-1.6-11.6-4.8c-3.2-3.2-4.8-7.2-4.8-11.8c0-4.4,1.6-8.2,4.8-11.3
			C279.1,197.3,283,195.7,287.5,195.7 M274.7,237h25.6v100.4h-25.6V237z"/>
		<path class="st0" d="M388.3,251.1l-15.9,15.6c-6.4-6.3-12.3-9.4-17.5-9.4c-2.9,0-5.1,0.6-6.8,1.8c-1.6,1.2-2.4,2.7-2.4,4.5
			c0,1.3,0.5,2.6,1.6,3.7c1,1.1,3.6,2.7,7.6,4.7l9.4,4.6c9.9,4.8,16.7,9.7,20.4,14.7c3.7,5,5.5,10.8,5.5,17.5
			c0,8.9-3.3,16.4-10,22.3c-6.7,6-15.6,8.9-26.8,8.9c-14.9,0-26.8-5.7-35.7-17.2l15.8-16.9c3,3.4,6.5,6.2,10.6,8.3
			c4,2.1,7.6,3.2,10.7,3.2c3.4,0,6.1-0.8,8.2-2.4c2.1-1.6,3.1-3.4,3.1-5.5c0-3.9-3.7-7.7-11.2-11.4l-8.6-4.2
			c-16.5-8.2-24.8-18.4-24.8-30.7c0-7.9,3.1-14.7,9.3-20.3c6.2-5.6,14.2-8.4,23.9-8.4c6.6,0,12.9,1.4,18.7,4.3
			C379.3,241.6,384.3,245.7,388.3,251.1"/>
		<path class="st0" d="M401.8,237h9.1c0.1-13.2,0.3-20.9,0.7-23.3c0.7-5.5,3.1-9.9,7.1-13.1c4-3.2,9.7-4.8,17.1-4.8
			c5.3,0,11.3,1.2,18,3.6v19.2c-3.7-1-6.7-1.6-9.1-1.6c-3,0-5.2,0.6-6.6,1.8c-1,0.9-1.5,2.8-1.5,5.7l-0.1,12.5h16.2v21.3h-16.2v79.1
			h-25.6v-79.1h-9.1V237z"/>
		<path class="st0" d="M484.2,195.7c4.5,0,8.3,1.6,11.6,4.8c3.2,3.2,4.8,7.1,4.8,11.6c0,4.5-1.6,8.3-4.8,11.5
			c-3.2,3.2-7,4.8-11.4,4.8c-4.6,0-8.4-1.6-11.6-4.8c-3.2-3.2-4.8-7.2-4.8-11.8c0-4.4,1.6-8.2,4.8-11.3
			C475.9,197.3,479.7,195.7,484.2,195.7 M471.4,237H497v100.4h-25.6V237z"/>
		<rect x="524" y="198.3" class="st0" width="25.6" height="139.1"/>
	</g>
	<path class="st1" d="M406.3,74.9L406.3,74.9c0,0,8.2,37.1-56.6,36.1c0,0,55.3-2,43.6,38.9c0,0,28.5-33.6,49.9-43.5
		C443.1,106.4,410.6,104.1,406.3,74.9z"/>
	<path class="st2" d="M341.9,23.3L341.9,23.3c0,0,9,41.1-68.8,39.8c0,0,90.4-1.3,76.5,47.9c0,0,30.8-24.1,56.6-36.1
		C406.3,74.9,347.2,58.4,341.9,23.3z"/>
	<path class="st3" d="M349.6,111L349.6,111c0,0,9.2,45.8-68.7,44.4c0,0,73.7,1.5,59.8,50.8c0,0,26.7-44.4,52.5-56.4
		C393.3,149.9,354.9,145.9,349.6,111z"/>
	<path class="st4" d="M273.1,63.1L273.1,63.1c0,0,9.9,45.9-69.6,44.6c0,0,91.5-2.7,77.5,47.8c0,0,42.2-32.4,68.7-44.4
		C349.6,111,278.7,99.1,273.1,63.1z"/>
	<path class="st5" d="M194.1,0L194.1,0c0,0,12.1,54.8-83.7,53.2c0,0,110.2-6.1,93.1,54.5c0,0,37.8-29.7,69.6-44.6
		C273.1,63.1,200.7,42.8,194.1,0z"/>
	<path class="st6" d="M110.4,52.8L110.4,52.8c0,0,17.1,54.9-78.6,53.3c0,0,104.4-4.2,87.3,56.1c0,0,52.7-39.9,84.5-54.5
		C203.5,107.7,117,95.8,110.4,52.8z"/>
	<path class="st7" d="M203.5,107.7L203.5,107.7c0,0,5.8,47.1-84.5,54.5c0,0,99.7-12.7,82.8,47.6c0,0,47.5-39.7,79.2-54.4
		C280.9,155.5,210,150.6,203.5,107.7z"/>
</g>
</svg>
